<?xml version="1.0" standalone="no"?>
<!DOCTYPE svg PUBLIC "-//W3C//DTD SVG 20010904//EN"
 "http://www.w3.org/TR/2001/REC-SVG-20010904/DTD/svg10.dtd">
<svg version="1.0" xmlns="http://www.w3.org/2000/svg"
 width="512.000000pt" height="512.000000pt" viewBox="0 0 512.000000 512.000000"
 preserveAspectRatio="xMidYMid meet">
<metadata>
Created by potrace 1.14, written by Peter Selinger 2001-2017
</metadata>
<g transform="translate(0.000000,512.000000) scale(0.100000,-0.100000)"
fill="#000000" stroke="none">
<path d="M505 5095 c-25 -24 -25 -27 -25 -200 l0 -175 -95 0 c-88 0 -98 -2
-120 -25 -33 -32 -33 -78 0 -110 22 -23 32 -25 120 -25 l95 0 0 -160 0 -160
-95 0 c-88 0 -98 -2 -120 -25 -16 -15 -25 -36 -25 -55 0 -19 9 -40 25 -55 22
-23 32 -25 120 -25 l95 0 0 -160 0 -160 -95 0 c-88 0 -98 -2 -120 -25 -33 -32
-33 -78 0 -110 22 -23 32 -25 120 -25 l95 0 0 -160 0 -160 -95 0 c-88 0 -98
-2 -120 -25 -33 -32 -33 -78 0 -110 22 -23 32 -25 120 -25 l95 0 0 -160 0
-160 -95 0 c-88 0 -98 -2 -120 -25 -33 -32 -33 -78 0 -110 22 -23 32 -25 120
-25 l95 0 0 -160 0 -160 -95 0 c-88 0 -98 -2 -120 -25 -16 -15 -25 -36 -25
-55 0 -19 9 -40 25 -55 22 -23 32 -25 120 -25 l95 0 0 -160 0 -160 -95 0 c-88
0 -98 -2 -120 -25 -33 -32 -33 -78 0 -110 22 -23 32 -25 120 -25 l95 0 0 -160
0 -160 -95 0 c-88 0 -98 -2 -120 -25 -33 -32 -33 -78 0 -110 22 -23 32 -25
120 -25 l95 0 0 -160 0 -160 -95 0 c-88 0 -98 -2 -120 -25 -33 -32 -33 -78 0
-110 22 -23 32 -25 120 -25 l95 0 0 -160 0 -160 -95 0 c-88 0 -98 -2 -120 -25
-33 -32 -33 -78 0 -110 22 -23 32 -25 120 -25 l95 0 0 -95 c0 -88 2 -98 25
-120 l24 -25 1871 0 1871 0 24 25 c25 24 25 27 25 200 l0 175 153 0 c200 0
240 11 318 89 83 83 89 110 89 391 0 281 -6 308 -89 391 -78 78 -118 89 -318
89 l-153 0 0 55 c0 46 -4 60 -25 80 -13 14 -31 25 -40 25 -13 0 -15 18 -15
120 0 102 2 120 15 120 9 0 27 11 40 25 23 22 25 32 25 120 l0 95 153 0 c200
0 240 11 318 89 83 83 89 110 89 391 0 281 -6 308 -89 391 -78 78 -118 89
-318 89 l-153 0 0 320 0 320 153 0 c200 0 240 11 318 89 83 83 89 110 89 391
0 281 -6 308 -89 391 -78 78 -118 89 -318 89 l-153 0 0 255 0 256 -25 24 -24
25 -1871 0 -1871 0 -24 -25z m4144 -713 c65 -35 71 -60 71 -302 0 -189 -2
-219 -18 -249 -33 -61 -67 -71 -234 -71 l-148 0 0 320 0 320 148 0 c124 0 153
-3 181 -18z m-1049 -382 l0 -320 -1080 0 -1080 0 0 320 0 320 1080 0 1080 0 0
-320z m1049 -1218 c65 -35 71 -60 71 -302 0 -189 -2 -219 -18 -249 -33 -61
-67 -71 -234 -71 l-148 0 0 320 0 320 148 0 c124 0 153 -3 181 -18z m0 -1600
c65 -35 71 -60 71 -302 0 -189 -2 -219 -18 -249 -33 -61 -67 -71 -234 -71
l-148 0 0 320 0 320 148 0 c124 0 153 -3 181 -18z"/>
</g>
</svg>
